<mxfile host="65bd71144e">
    <diagram id="KIDsxcXNcnjyNB06de4f" name="Page-1">
        <mxGraphModel dx="1002" dy="571" grid="1" gridSize="10" guides="1" tooltips="1" connect="1" arrows="1" fold="1" page="1" pageScale="1" pageWidth="827" pageHeight="1169" math="0" shadow="0">
            <root>
                <mxCell id="0"/>
                <mxCell id="1" parent="0"/>
                <mxCell id="4" value="" style="edgeStyle=none;html=1;" parent="1" source="2" target="3" edge="1">
                    <mxGeometry relative="1" as="geometry"/>
                </mxCell>
                <mxCell id="2" value="&lt;font style=&quot;font-size: 14px;&quot;&gt;Yog -&amp;gt;&amp;nbsp;SboController: &quot;Bonus&quot;&lt;/font&gt;" style="rounded=0;whiteSpace=wrap;html=1;" parent="1" vertex="1">
                    <mxGeometry x="320" y="40" width="160" height="40" as="geometry"/>
                </mxCell>
                <mxCell id="8" value="" style="edgeStyle=none;html=1;fontSize=12;" parent="1" source="3" target="6" edge="1">
                    <mxGeometry relative="1" as="geometry"/>
                </mxCell>
                <mxCell id="3" value="&lt;font style=&quot;font-size: 12px;&quot;&gt;如果 GameProviderType 是 Sport 類型且為&amp;nbsp;Cockfight 的話就返回錯誤&lt;br&gt;&lt;/font&gt;" style="rounded=0;whiteSpace=wrap;html=1;align=left;" parent="1" vertex="1">
                    <mxGeometry x="300" y="110" width="200" height="50" as="geometry"/>
                </mxCell>
                <mxCell id="5" value="" style="edgeStyle=none;html=1;" parent="1" source="6" target="7" edge="1">
                    <mxGeometry relative="1" as="geometry"/>
                </mxCell>
                <mxCell id="12" value="" style="edgeStyle=none;html=1;fontSize=12;" parent="1" source="6" target="11" edge="1">
                    <mxGeometry relative="1" as="geometry"/>
                </mxCell>
                <mxCell id="6" value="DecodeAccount()&lt;br&gt;從Request提取UserInfo (WebId, Username)" style="whiteSpace=wrap;html=1;rounded=0;align=left;" parent="1" vertex="1">
                    <mxGeometry x="320" y="190" width="162.5" height="60" as="geometry"/>
                </mxCell>
                <mxCell id="7" value="- 用 'yy_' 分割 Request 的 username&lt;br&gt;- 分割後拿到 2 個 elements 的話，第1個設為 webId，第2個設為 username&lt;br&gt;- 分割後拿到 2 個以上的 elements 的話，username 設為 &quot;除了第2個以外的所有元素用 yy_連接起來的字串&quot;&amp;nbsp;" style="whiteSpace=wrap;html=1;rounded=0;align=left;" parent="1" vertex="1">
                    <mxGeometry x="607" y="165" width="270" height="110" as="geometry"/>
                </mxCell>
                <mxCell id="17" value="" style="edgeStyle=none;html=1;fontSize=12;fontColor=#FFFFFF;" parent="1" source="11" target="13" edge="1">
                    <mxGeometry relative="1" as="geometry"/>
                </mxCell>
                <mxCell id="11" value="- 拿到 promotionGpId&lt;br&gt;- 透過 sp_GetRunningPromotionWithPromotionWallet 拿到&amp;nbsp;promotionRequestId，如果有多筆的Promotion是同一個GameProvider時，就拿最早那一筆（如果找不到就代表沒有Promotion，返回 0 -&amp;gt; 代表Main Wallet）&lt;br&gt;" style="whiteSpace=wrap;html=1;rounded=0;align=left;" parent="1" vertex="1">
                    <mxGeometry x="260" y="290" width="280" height="100" as="geometry"/>
                </mxCell>
                <mxCell id="19" value="" style="edgeStyle=none;html=1;fontSize=12;fontColor=#FFFFFF;" parent="1" source="13" target="18" edge="1">
                    <mxGeometry relative="1" as="geometry"/>
                </mxCell>
                <mxCell id="13" value="&lt;b&gt;&lt;font style=&quot;font-size: 14px;&quot;&gt;執行 sp_&lt;/font&gt;&lt;/b&gt;&lt;span style=&quot;font-family: Consolas, &amp;quot;Courier New&amp;quot;, monospace;&quot;&gt;&lt;font style=&quot;&quot;&gt;&lt;font size=&quot;3&quot; style=&quot;&quot; color=&quot;#ffffff&quot;&gt;&lt;b style=&quot;&quot;&gt;Yog_Seamless_BonusSboSeamlessBet:&lt;/b&gt;&lt;/font&gt;&lt;br&gt;&lt;font style=&quot;font-size: 12px;&quot; color=&quot;#ffffff&quot;&gt;- 如果在 sboSeamlessBets 裡找到相同注單就返回error&lt;/font&gt;&lt;br&gt;&lt;font style=&quot;font-size: 12px;&quot; color=&quot;#ffffff&quot;&gt;- 如果找不到玩家，返回error&lt;/font&gt;&lt;br&gt;&lt;font style=&quot;font-size: 12px;&quot; color=&quot;#ffffff&quot;&gt;- 檢查玩家及其所有階層狀態&lt;/font&gt;&lt;br&gt;&lt;font style=&quot;font-size: 12px;&quot; color=&quot;#ffffff&quot;&gt;- 如果&amp;nbsp;&lt;/font&gt;&lt;/font&gt;&lt;/span&gt;promotionRequestId 不等於0，代表是 Promotion Wallet&lt;span style=&quot;font-family: Consolas, &amp;quot;Courier New&amp;quot;, monospace;&quot;&gt;&lt;font color=&quot;#ffffff&quot; style=&quot;font-size: 12px;&quot;&gt;&lt;br&gt;&amp;nbsp; - 檢查玩家的betcredit是否小於0&lt;br&gt;&amp;nbsp; -&amp;nbsp;&lt;/font&gt;&lt;/span&gt;&lt;span style=&quot;font-family: Consolas, &amp;quot;Courier New&amp;quot;, monospace;&quot;&gt;&lt;font color=&quot;#ffffff&quot; style=&quot;font-size: 12px;&quot;&gt;Record_InsertBalanceHistoryForPromotion&lt;br&gt;&amp;nbsp; - Update Promotion&lt;/font&gt;&lt;/span&gt;&lt;span style=&quot;font-family: Consolas, &amp;quot;Courier New&amp;quot;, monospace;&quot;&gt;&lt;font style=&quot;font-size: 12px;&quot;&gt;&lt;font color=&quot;#ffffff&quot;&gt;CashUsed&lt;br&gt;&amp;nbsp; - Insert into SboSeamlessBets&lt;br&gt;&lt;/font&gt;- 如果是 Main Wallet：&lt;br&gt;&amp;nbsp;&amp;nbsp;&lt;/font&gt;&lt;/span&gt;&lt;span style=&quot;font-family: Consolas, &amp;quot;Courier New&amp;quot;, monospace;&quot;&gt;&lt;font color=&quot;#ffffff&quot;&gt;- 檢查玩家的betcredit是否小於0&lt;br&gt;&amp;nbsp; -&amp;nbsp;&lt;/font&gt;&lt;/span&gt;&lt;span style=&quot;font-family: Consolas, &amp;quot;Courier New&amp;quot;, monospace;&quot;&gt;&lt;font color=&quot;#ffffff&quot;&gt;Record_InsertBalanceHistory&lt;br&gt;&amp;nbsp; - Update &lt;/font&gt;&lt;/span&gt;&lt;span style=&quot;font-family: Consolas, &amp;quot;Courier New&amp;quot;, monospace;&quot;&gt;&lt;font color=&quot;#ffffff&quot;&gt;CashUsed&lt;br&gt;&amp;nbsp; - Insert into SboSeamlessBets&lt;/font&gt;&lt;/span&gt;&lt;span style=&quot;font-family: Consolas, &amp;quot;Courier New&amp;quot;, monospace;&quot;&gt;&lt;font style=&quot;font-size: 12px;&quot;&gt;&amp;nbsp;&lt;br&gt;&lt;/font&gt;&lt;/span&gt;" style="whiteSpace=wrap;html=1;rounded=0;align=left;" parent="1" vertex="1">
                    <mxGeometry x="251.88" y="410" width="298.75" height="270" as="geometry"/>
                </mxCell>
                <mxCell id="21" value="" style="edgeStyle=none;html=1;fontSize=12;fontColor=#FFFFFF;" parent="1" source="18" target="20" edge="1">
                    <mxGeometry relative="1" as="geometry"/>
                </mxCell>
                <mxCell id="18" value="&lt;font style=&quot;font-size: 14px;&quot;&gt;執行 sp_&lt;span style=&quot;color: rgb(255, 255, 255);&quot;&gt;Yog_Seamless_SettleSboSeamlessBonus&lt;/span&gt;&lt;/font&gt;&lt;span style=&quot;font-family: Consolas, &amp;quot;Courier New&amp;quot;, monospace;&quot;&gt;&lt;font color=&quot;#ffffff&quot; style=&quot;&quot;&gt;&lt;font size=&quot;3&quot;&gt;:&lt;/font&gt;&lt;br&gt;- 在&amp;nbsp;&lt;/font&gt;&lt;/span&gt;&lt;font style=&quot;&quot;&gt;&lt;font face=&quot;Consolas, Courier New, monospace&quot; color=&quot;#ffffff&quot;&gt;SboSeamlessBets 檢查註單，&lt;/font&gt;&lt;span style=&quot;color: rgb(255, 255, 255); font-family: Consolas, &amp;quot;Courier New&amp;quot;, monospace;&quot;&gt;如果找不到&lt;/span&gt;&lt;font face=&quot;Consolas, Courier New, monospace&quot; color=&quot;#ffffff&quot;&gt;&lt;br&gt;&amp;nbsp;/&amp;nbsp;&lt;/font&gt;&lt;span style=&quot;color: rgb(255, 255, 255); font-family: Consolas, &amp;quot;Courier New&amp;quot;, monospace;&quot;&gt;如果有找到，但狀態是 bonus 的話&lt;/span&gt;&lt;span style=&quot;color: rgb(255, 255, 255); font-family: Consolas, &amp;quot;Courier New&amp;quot;, monospace;&quot;&gt;，返回錯誤&lt;/span&gt;&lt;font face=&quot;Consolas, Courier New, monospace&quot; color=&quot;#ffffff&quot;&gt;&lt;br&gt;&amp;nbsp;，並且記錄到&amp;nbsp;SboSeamlessWalletError 裡面&lt;br&gt;&lt;/font&gt;-&amp;nbsp; 從&amp;nbsp;SboSeamlessBets 計算玩家的 total actualStake&lt;br&gt;- 再把 total actualStake 從 winlost 減去，得到玩家實際上的winlost&lt;br&gt;- 根據不同的 walletProductType，walletGameType 記錄到 sp_Record_InsertBalanceHistory&lt;br&gt;-&amp;nbsp;Arbitrage Player Checking:&lt;br&gt;- 如果目前是 Main Wallet的話，從 SboSeamlessBets 拿到玩家注單狀態為‘lose’的最後一筆注單的Stake跟PromotionRequestId，如果這筆注單是 Promotion Wallet的話，從CustomerSetting拿到ArbitrageCheckStakeRate，然後檢查CustomerSetting裡有沒有開啟套利，如果有開啟就&lt;br&gt;-&lt;br&gt;&lt;/font&gt;" style="whiteSpace=wrap;html=1;rounded=0;align=left;" parent="1" vertex="1">
                    <mxGeometry x="251.88" y="700" width="298.75" height="300" as="geometry"/>
                </mxCell>
                <mxCell id="23" value="" style="edgeStyle=none;html=1;fontSize=12;fontColor=#FFFFFF;" parent="1" source="20" target="22" edge="1">
                    <mxGeometry relative="1" as="geometry"/>
                </mxCell>
                <mxCell id="20" value="&lt;font color=&quot;#ffffff&quot;&gt;&lt;span style=&quot;text-align: center;&quot;&gt;GetUnsettledOrder()：&lt;/span&gt;&lt;br&gt;- 獲取所有未結算的注單，包含所有層級&lt;br&gt;&lt;br&gt;- Construct 所有階層的 DailyStatement&lt;br&gt;- 利用 sp_&lt;span style=&quot;font-family: Consolas, &amp;quot;Courier New&amp;quot;, monospace;&quot;&gt;&lt;font style=&quot;font-size: 12px;&quot;&gt;Yog_GameProvider_UpsertDailyStatement 更新 DailyStatement&lt;/font&gt;&lt;/span&gt;&lt;/font&gt;" style="whiteSpace=wrap;html=1;rounded=0;align=left;" parent="1" vertex="1">
                    <mxGeometry x="607" y="790" width="240" height="131" as="geometry"/>
                </mxCell>
                <mxCell id="22" value="GetPlayerBalance()&lt;br&gt;- 拿到玩家錢包的錢後返回" style="whiteSpace=wrap;html=1;rounded=0;align=left;" parent="1" vertex="1">
                    <mxGeometry x="617" y="960" width="220" height="60" as="geometry"/>
                </mxCell>
                <mxCell id="25" value="&lt;font style=&quot;font-size: 12px;&quot;&gt;- 什麼情況會 call 到 bonus ？？會先 placeBet 再自動 Settled，placeBet成功會塞到SboSeamlessRunningBet裡，Settled成功後會塞到SboSeamlessBets裡&lt;br&gt;- BonusSboSeamlessBet&amp;nbsp;&lt;span style=&quot;font-family: Consolas, &amp;quot;Courier New&amp;quot;, monospace;&quot;&gt;傳進來的 Amount = 0？？因為Bouns的Stake也就是Amount是0，不花玩家自己的錢&lt;/span&gt;&lt;br&gt;- betCredit 的計算方式 (目前等於 balance)&lt;br&gt;- CashBalanceDelta, OutstandingDelta&lt;br&gt;-&amp;nbsp;&lt;span style=&quot;font-family: Consolas, &amp;quot;Courier New&amp;quot;, monospace; font-size: 14px; color: rgb(206, 145, 120);&quot;&gt;買東西後的狀態&lt;/span&gt;&lt;span style=&quot;background-color: initial;&quot;&gt;&amp;nbsp;&lt;/span&gt;&lt;span style=&quot;font-family: Consolas, &amp;quot;Courier New&amp;quot;, monospace; font-size: 14px; color: rgb(86, 156, 214);&quot;&gt;Status&lt;/span&gt;&lt;span style=&quot;background-color: rgb(31, 31, 31); color: rgb(204, 204, 204); font-family: Consolas, &amp;quot;Courier New&amp;quot;, monospace; font-size: 14px;&quot;&gt;&amp;nbsp;&lt;/span&gt;&lt;span style=&quot;font-family: Consolas, &amp;quot;Courier New&amp;quot;, monospace; font-size: 14px; background-color: rgb(42, 37, 47);&quot;&gt;&lt;font color=&quot;#d4d4d4&quot;&gt;會是&lt;/font&gt;&lt;/span&gt;&lt;span style=&quot;background-color: rgb(31, 31, 31); color: rgb(204, 204, 204); font-family: Consolas, &amp;quot;Courier New&amp;quot;, monospace; font-size: 14px;&quot;&gt;&amp;nbsp;&lt;/span&gt;&lt;span style=&quot;font-family: Consolas, &amp;quot;Courier New&amp;quot;, monospace; font-size: 14px; color: rgb(206, 145, 120);&quot;&gt;'Lose'&lt;/span&gt;&lt;br&gt;-&amp;nbsp;(@lastStake * @arbitrageCheckStakeRate) &amp;lt;= @winloss 因為目前的 arbitrageCheckStakeRate 都是0，所以條件一定會成立&lt;br&gt;&lt;/font&gt;" style="rounded=1;whiteSpace=wrap;html=1;labelBackgroundColor=none;fontSize=12;fontColor=#FF9999;align=left;" parent="1" vertex="1">
                    <mxGeometry x="650" y="330" width="423" height="270" as="geometry"/>
                </mxCell>
            </root>
        </mxGraphModel>
    </diagram>
</mxfile>